<?xml version="1.0" encoding="utf-8"?>
<!-- Generator: Adobe Illustrator 27.0.0, SVG Export Plug-In . SVG Version: 6.00 Build 0)  -->
<svg version="1.1" id="레이어_1" xmlns="http://www.w3.org/2000/svg" xmlns:xlink="http://www.w3.org/1999/xlink" x="0px"
	 y="0px" viewBox="0 0 430 430" style="enable-background:new 0 0 430 430;" xml:space="preserve">
<style type="text/css">
	.st0{display:none;}
	.st1{display:inline;}
	.st2{fill:#F28BA8;}
	.st3{display:inline;opacity:0.5;}
	.st4{fill:#EBE6EF;}
	.st5{display:inline;fill:url(#SVGID_1_);}
	.st6{fill:url(#SVGID_00000166665732683598647410000007901002494719436475_);}
	.st7{fill:#FFFFFF;}
</style>
<g id="Warstwa_1" class="st0">
	<g class="st1">
		<path class="st2" d="M359.8,85.1c-16.9-16.9-38.2-27.2-61.9-29.8c-30.6-3.4-60.6,6.6-82.9,27.6c-19.4-18.3-44.6-28.3-71.2-28.3
			c-27.8,0-53.9,10.8-73.6,30.5s-30.5,45.8-30.5,73.6s10.8,53.9,30.5,73.6l142.4,142.4c0.6,0.6,1.5,1,2.4,1s1.8-0.4,2.4-1
			l142.4-142.4c19.7-19.7,30.5-45.8,30.5-73.6S379.5,104.8,359.8,85.1z"/>
	</g>
	<g class="st3">
		<path class="st2" d="M215.2,82.6v293c-0.1,0-0.1,0-0.2,0c-0.9,0-1.8-0.4-2.4-1L70.2,232.2c-19.7-19.6-30.5-45.8-30.5-73.6
			S50.5,104.7,70.2,85s45.8-30.5,73.6-30.5c26.7,0,51.9,10,71.2,28.3C215.1,82.8,215.1,82.7,215.2,82.6z"/>
	</g>
	<g class="st1">
		<path class="st4" d="M66.8,162.9c-1.9,0-3.5-1.6-3.5-3.5c0-44.7,36.4-81.1,81.1-81.1c1.9,0,3.5,1.6,3.5,3.5s-1.6,3.5-3.5,3.5
			c-40.9,0-74.1,33.2-74.1,74.1C70.3,161.3,68.8,162.9,66.8,162.9z"/>
	</g>
</g>
<g id="레이어_3" class="st0">
	
		<linearGradient id="SVGID_1_" gradientUnits="userSpaceOnUse" x1="215" y1="1078" x2="215" y2="648" gradientTransform="matrix(1 0 0 1 0 -648)">
		<stop  offset="0" style="stop-color:#FA709A"/>
		<stop  offset="1" style="stop-color:#FEE140"/>
	</linearGradient>
	<path class="st5" d="M409.3,430H20.7C9.3,430,0,420.7,0,409.3V20.7C0,9.3,9.3,0,20.7,0h388.5C420.7,0,430,9.3,430,20.7v388.5
		C430,420.7,420.7,430,409.3,430z"/>
</g>
<g id="레이어_4">
	
		<linearGradient id="SVGID_00000054225937464208797710000001735922623470898065_" gradientUnits="userSpaceOnUse" x1="216" y1="1078" x2="216" y2="648" gradientTransform="matrix(1 0 0 1 0 -648)">
		<stop  offset="1.076592e-03" style="stop-color:#20BF6B"/>
		<stop  offset="0.9988" style="stop-color:#3CDE81"/>
	</linearGradient>
	<path style="fill:url(#SVGID_00000054225937464208797710000001735922623470898065_);" d="M216,430L216,430C97.3,430,1,333.7,1,215
		l0,0C1,96.3,97.3,0,216,0l0,0c118.7,0,215,96.3,215,215l0,0C431,333.7,334.7,430,216,430z"/>
</g>
<g>
	<path class="st7" d="M280.9,143.6c12.2,11.8,21.9,30.7,26.3,46.9c8.9,28.8,1.2,59.5-14.6,84.7c-7.3,11.4-19,21.3-31.6,26.8
		c-16.2,7.1-36.1,10.2-53.9,8.7c-64.4-3.5-100.5-60.7-84.3-119.7c8.5-31.1,25.9-50.4,48.2-61.1C207.1,112.5,250.5,115.2,280.9,143.6
		z M178.4,247.2c5.3,7.9,21.5,13.8,36.5,14.6c34.8,2,53.5-46.1,34.8-75.2c-13.4-21.3-49.4-19.3-66.5-3.9
		C167.4,197.6,165,228.7,178.4,247.2z"/>
</g>
</svg>
