<?xml version="1.0" encoding="utf-8"?>
<!-- Generator: Adobe Illustrator 26.5.0, SVG Export Plug-In . SVG Version: 6.00 Build 0)  -->
<svg version="1.1" xmlns="http://www.w3.org/2000/svg" xmlns:xlink="http://www.w3.org/1999/xlink" x="0px" y="0px"
	 viewBox="0 0 430 430" style="enable-background:new 0 0 430 430;" xml:space="preserve">
<style type="text/css">
	.st0{display:none;}
	.st1{display:inline;}
	.st2{fill:#F28BA8;}
	.st3{display:inline;opacity:0.5;}
	.st4{fill:#EBE6EF;}
	.st5{display:inline;fill:url(#SVGID_1_);}
	.st6{fill:url(#SVGID_00000044173839098622256430000004179146650749083827_);}
	.st7{fill:#FFFFFF;}
</style>
<g id="Warstwa_1" class="st0">
	<g class="st1">
		<path class="st2" d="M359.8,85.1c-16.9-16.9-38.2-27.2-61.9-29.8c-30.6-3.4-60.6,6.6-82.9,27.6c-19.4-18.3-44.6-28.3-71.2-28.3
			c-27.8,0-53.9,10.8-73.6,30.5c-19.7,19.7-30.5,45.8-30.5,73.6s10.8,53.9,30.5,73.6l142.4,142.4c0.6,0.6,1.5,1,2.4,1
			c0.9,0,1.8-0.4,2.4-1l142.4-142.4c19.7-19.7,30.5-45.8,30.5-73.6C390.3,130.9,379.5,104.8,359.8,85.1z"/>
	</g>
	<g class="st3">
		<path class="st2" d="M215.2,82.6v293c-0.1,0-0.1,0-0.2,0c-0.9,0-1.8-0.4-2.4-1L70.2,232.2c-19.7-19.6-30.5-45.8-30.5-73.6
			c0-27.8,10.8-53.9,30.5-73.6c19.7-19.7,45.8-30.5,73.6-30.5c26.7,0,51.9,10,71.2,28.3C215.1,82.8,215.1,82.7,215.2,82.6z"/>
	</g>
	<g class="st1">
		<path class="st4" d="M66.8,162.9c-1.9,0-3.5-1.6-3.5-3.5c0-44.7,36.4-81.1,81.1-81.1c1.9,0,3.5,1.6,3.5,3.5s-1.6,3.5-3.5,3.5
			c-40.9,0-74.1,33.2-74.1,74.1C70.3,161.3,68.8,162.9,66.8,162.9z"/>
	</g>
</g>
<g id="레이어_3" class="st0">
	<linearGradient id="SVGID_1_" gradientUnits="userSpaceOnUse" x1="215" y1="430" x2="215" y2="-9.094947e-13">
		<stop  offset="0" style="stop-color:#FA709A"/>
		<stop  offset="1" style="stop-color:#FEE140"/>
	</linearGradient>
	<path class="st5" d="M409.3,430H20.7C9.3,430,0,420.7,0,409.3V20.7C0,9.3,9.3,0,20.7,0h388.5C420.7,0,430,9.3,430,20.7v388.5
		C430,420.7,420.7,430,409.3,430z"/>
</g>
<g id="레이어_4">
	
		<linearGradient id="SVGID_00000011013373918946801270000012934908721063973778_" gradientUnits="userSpaceOnUse" x1="215" y1="430" x2="215" y2="-9.094947e-13">
		<stop  offset="1.076592e-03" style="stop-color:#FF5858"/>
		<stop  offset="1" style="stop-color:#F9D423"/>
	</linearGradient>
	<path style="fill:url(#SVGID_00000011013373918946801270000012934908721063973778_);" d="M215,430L215,430C96.3,430,0,333.7,0,215
		v0C0,96.3,96.3,0,215,0h0c118.7,0,215,96.3,215,215v0C430,333.7,333.7,430,215,430z"/>
</g>
<g id="레이어_2">
	<polygon class="st7" points="247.6,109.7 247.6,152.8 307.5,152.8 307.5,201.7 257.4,201.7 307.2,290.1 268.4,320.3 215.9,242.4 
		159,320.3 122.5,290.1 174.1,203.1 122.5,203.1 122.5,153.7 182.4,153.7 182.4,109.7 247.6,109.7 	"/>
</g>
</svg>
